<svg xmlns="http://www.w3.org/2000/svg" width="79" height="76">
    <path fill="#3C3C3C" fill-rule="evenodd" d="M76.921 75.997H2.078a2.09 2.09 0 0 1-2.08-2.098V2.093a2.09 2.09 0 0 1 2.08-2.099h74.843C78.069-.006 79 .933 79 2.093v71.806a2.088 2.088 0 0 1-2.079 2.098zM74.842 4.192H4.156v6.691h70.686V4.192zm0 10.888H4.156V71.8h70.686V15.08zM27.748 34.625a1.808 1.808 0 0 1 2.573 0 1.846 1.846 0 0 1 0 2.596l-4.364 4.407 4.374 4.415c.71.717.71 1.879 0 2.596a1.807 1.807 0 0 1-2.572-.001l-5.66-5.712a1.848 1.848 0 0 1 0-2.597l5.649-5.704zm12.004-1.778a1.82 1.82 0 0 1 2.212-1.325 1.839 1.839 0 0 1 1.314 2.234l-4.624 18.281a1.823 1.823 0 0 1-2.213 1.324 1.836 1.836 0 0 1-1.312-2.233l4.623-18.281zm8.914 1.777a1.807 1.807 0 0 1 2.572 0l5.66 5.713a1.841 1.841 0 0 1 0 2.596l-5.651 5.704a1.799 1.799 0 0 1-2.571.001 1.846 1.846 0 0 1 0-2.596l4.365-4.406-4.375-4.415a1.85 1.85 0 0 1 0-2.597zM9.181 6.069c.803 0 1.454.658 1.454 1.468a1.46 1.46 0 0 1-1.454 1.468 1.461 1.461 0 0 1-1.455-1.468c0-.81.651-1.468 1.455-1.468zm4.35.001a1.46 1.46 0 0 1 1.454 1.467 1.46 1.46 0 0 1-1.454 1.467 1.46 1.46 0 0 1-1.453-1.467c0-.81.651-1.467 1.453-1.467zm4.35-.001c.803 0 1.454.658 1.454 1.468a1.46 1.46 0 0 1-1.454 1.468 1.46 1.46 0 0 1-1.454-1.468c0-.81.651-1.468 1.454-1.468z"/>
</svg>
