<svg xmlns="http://www.w3.org/2000/svg" width="80" height="84">
    <path fill="#3C3C3C" fill-rule="evenodd" d="M77.956-.011H66.032c-1.125 0-2.025.9-2.025 2.025v4.163H15.86V2.014a2.016 2.016 0 0 0-2.024-2.025H2.024c-1.125 0-2.025.9-2.025 2.025v12.263c0 1.125.9 2.025 2.025 2.025h11.924c1.125 0 2.025-.9 2.025-2.025v-4.163h22.161c-.225 4.951-12.262 28.24-19.911 41.965-.45.788-.225 1.8.45 2.475 6.862 5.85 8.549 11.589 8.999 14.513h-2.587c-1.125 0-2.025.9-2.025 2.026v9.9c0 1.125.9 2.025 2.025 2.025h29.923c1.125 0 2.025-.9 2.025-2.025v-9.9c0-1.126-.9-2.026-2.025-2.026H52.42c.45-2.924 2.138-8.663 9-14.513.675-.562.9-1.687.45-2.475-7.65-13.725-19.686-37.127-19.911-41.965h22.048v4.163c0 1.125.9 2.025 2.025 2.025h11.924c1.125 0 2.025-.9 2.025-2.025V2.014c0-1.125-.9-2.025-2.025-2.025zM11.923 12.252H3.936V3.926h7.987v8.326zm28.123 32.964c1.463 0 2.588 1.125 2.588 2.588s-1.125 2.588-2.588 2.588c-1.462 0-2.587-1.125-2.587-2.588 0-1.35 1.237-2.588 2.587-2.588zm13.049 33.639H27.11v-5.962h25.985v5.962zm-4.612-9.9H31.609c-.45-3.263-2.137-9.788-9.224-16.426 2.7-4.95 10.799-19.801 15.636-30.827v19.914c-2.587.788-4.499 3.262-4.499 6.188a6.53 6.53 0 0 0 6.524 6.525 6.53 6.53 0 0 0 6.525-6.525c0-2.926-1.913-5.288-4.5-6.188V21.59c4.95 11.026 12.937 25.876 15.636 30.939-7.086 6.638-8.774 13.163-9.224 16.426zm27.561-56.703h-7.987V8.539v-.337-4.163h7.987v8.213z"/>
</svg>
