<svg xmlns="http://www.w3.org/2000/svg" width="79" height="91">
    <path fill="#3C3C3C" fill-rule="evenodd" d="M76.888 91H2.081a2.078 2.078 0 0 1-2.092-2.079V13.483c0-1.143.931-2.078 2.092-2.078h20.467c.219-3.181 2.887-5.686 6.131-5.686h5.994C34.705 2.57 37.3.013 40.48.013c3.19 0 5.774 2.557 5.816 5.706h5.985c3.253 0 5.921 2.505 6.141 5.686h18.466c1.161 0 2.093.935 2.093 2.078v75.438A2.08 2.08 0 0 1 76.888 91zM54.259 11.842a1.97 1.97 0 0 0-1.977-1.965h-6.539c-1.998 0-3.63-1.62-3.63-3.606v-.478a1.627 1.627 0 1 0-3.254 0v.478c0 1.984-1.633 3.606-3.641 3.606h-6.539a1.969 1.969 0 0 0-1.968 1.965h.002v4.261h27.546v-4.261zm20.535 3.72H58.441v2.619a2.078 2.078 0 0 1-2.092 2.079H24.618a2.078 2.078 0 0 1-2.092-2.079v-2.619H4.173v71.281h70.621V15.562zM19.768 32.375l1.989 1.975 5.086-5.052a1.576 1.576 0 0 1 2.219 0 1.552 1.552 0 0 1 0 2.205l-6.195 6.154a1.574 1.574 0 0 1-2.22 0l-3.098-3.077a1.554 1.554 0 0 1 0-2.205 1.576 1.576 0 0 1 2.219 0zm0 13.34l1.989 1.974 5.086-5.051a1.576 1.576 0 0 1 2.219 0 1.55 1.55 0 0 1 0 2.205l-6.195 6.154a1.574 1.574 0 0 1-2.22 0l-3.098-3.077a1.554 1.554 0 0 1 0-2.205 1.576 1.576 0 0 1 2.219 0zm0 13.34l1.989 1.976 5.086-5.052a1.576 1.576 0 0 1 2.219 0 1.552 1.552 0 0 1 0 2.205l-6.195 6.155a1.577 1.577 0 0 1-2.22-.001l-3.098-3.077a1.555 1.555 0 0 1 0-2.206 1.578 1.578 0 0 1 2.219 0zm0 13.342l1.989 1.976 5.086-5.052a1.576 1.576 0 0 1 2.219 0 1.55 1.55 0 0 1 0 2.205l-6.195 6.154a1.579 1.579 0 0 1-2.22 0l-3.098-3.078a1.554 1.554 0 0 1 0-2.205 1.578 1.578 0 0 1 2.219 0zm15.869-40.478h18.674c.866 0 1.569.698 1.569 1.559s-.702 1.559-1.569 1.559H35.637a1.564 1.564 0 0 1-1.569-1.559c0-.861.703-1.559 1.569-1.559zm0 13.341h18.674c.866 0 1.569.698 1.569 1.559s-.702 1.559-1.569 1.559H35.637a1.564 1.564 0 0 1-1.569-1.559c0-.861.703-1.559 1.569-1.559zm0 13.34h18.674c.866 0 1.569.697 1.569 1.559 0 .861-.702 1.558-1.569 1.558H35.637a1.564 1.564 0 0 1-1.569-1.558c0-.862.703-1.559 1.569-1.559zm0 13.34h18.674c.866 0 1.569.698 1.569 1.559s-.702 1.559-1.569 1.559H35.637a1.564 1.564 0 0 1-1.569-1.559c0-.861.703-1.559 1.569-1.559zm4.848-61.8c1.11 0 2.009.894 2.009 1.997a2.002 2.002 0 0 1-2.009 1.996c-1.11 0-2.01-.894-2.01-1.996 0-1.103.9-1.997 2.01-1.997z"/>
</svg>
